<?xml version="1.0" encoding="utf-8"?>
<!-- Generator: Adobe Illustrator 27.0.0, SVG Export Plug-In . SVG Version: 6.00 Build 0)  -->
<svg version="1.1" id="Warstwa_1" xmlns="http://www.w3.org/2000/svg" xmlns:xlink="http://www.w3.org/1999/xlink" x="0px" y="0px"
	 viewBox="0 0 512 512" style="enable-background:new 0 0 512 512;" xml:space="preserve">
<style type="text/css">
	.st0{fill:#FFFFFF;}
</style>
<path class="st0" d="M509.2,472.7c0-2.6-2.1-4.7-4.7-4.7H470l3.3-4.5c6.3-8.6,8.8-19.5,6.8-30c-1.1-5.7-3.3-11-6.7-15.7l-2.5-3.5
	l4.2-1c6.1-1.4,11.7-4.1,16.6-8c2.3-1.9,3.7-4.7,3.8-7.7c0-3-1.2-5.9-3.5-7.8l-69.4-59.3c-5.5-4.7-9.6-10.8-11.9-17.7l-30.8-92.1
	c-6.3-18.9-21.5-33.8-40.5-39.7l-55.8-17.5l4.7-3.3c13.4-9.4,21.4-24.8,21.4-41.1V84.2c0-27.8-22.6-50.3-50.3-50.3
	s-50.3,22.6-50.3,50.3v34.9c0,15.7,7.2,30.2,19.6,39.8l4.5,3.5l-5.5,1.5c-1.4,0.4-2.6,0.7-3.8,1.1l-51,16c-19,6-34.2,20.8-40.5,39.7
	l-30.8,92.1c-2.3,6.9-6.4,13-11.9,17.7l-69.4,59.4c-2.3,2-3.6,4.8-3.5,7.8c0,3,1.4,5.8,3.8,7.7c5.1,4.1,11.1,6.9,17.4,8.2l3.7,0.8
	l-1.8,3.3c-6,11.1-6.9,24.3-2.5,36c1.3,3.5,3.1,6.8,5.3,9.7L46,468H7.5c-2.6,0-4.7,2.1-4.7,4.7s2.1,4.7,4.7,4.7h497
	C507.1,477.4,509.2,475.3,509.2,472.7z M401.7,315.8c2.8,8.5,7.9,16,14.7,21.8l70.3,60.1l-3.1,2.1c-5.4,3.6-11.5,5.4-17.7,5.4
	c-5.3,0-10.7-1.3-15.5-4.1l-64.3-35.8c-5.9-3.3-10.9-8.1-14.5-13.8l-0.2-0.4l-24.6-61.3l40.4-17.6L401.7,315.8z M413.6,391.3
	L331,366.1v-90.5l32,79.5c0.1,0.2,0.2,0.5,0.3,0.7c4.4,7.4,10.7,13.5,18.3,17.7L413.6,391.3z M218.2,119.1V84.2
	c0-22.6,18.4-41,41-41c22.6,0,41,18.4,41,41v34.9c0,22.6-18.4,41-41,41C236.6,160.1,218.2,141.7,218.2,119.1z M141.1,223.7
	c5.4-16.1,18.3-28.7,34.4-33.8h0l51-16c19.3-6.1,39.6-6,58.9,0l51,16c16.2,5.1,29.1,17.7,34.4,33.8l13.2,39.5l-40.9,17.8l-12.6-31.3
	c-0.8-2.1-3-3.3-5.2-2.8c-2.2,0.4-3.8,2.4-3.8,4.6v113.4H190.3V251.5c0-2.2-1.6-4.2-3.8-4.6c-2.2-0.4-4.4,0.8-5.2,2.8l-11.1,27.6
	l-40.3-20.2L141.1,223.7z M28.4,399.8l-3.1-2.1l70.3-60.1c6.8-5.8,11.9-13.3,14.7-21.8l16.6-49.7l39.9,19.9l-6.4,16
	c-1,2.4,0.2,5.1,2.6,6.1c1.2,0.5,2.4,0.4,3.6,0c1.1-0.5,2-1.4,2.5-2.6l12-29.9v90.5l-81,24.4l30.5-17c7.5-4.2,13.8-10.3,18.3-17.7
	c0.1-0.2,0.2-0.4,0.3-0.7l5.6-14c0.5-1.2,0.5-2.4,0-3.6c-0.5-1.1-1.4-2-2.6-2.5c-2.4-1-5.1,0.2-6.1,2.6l-5.6,13.8
	c-3.6,5.7-8.6,10.5-14.5,13.8l-64.2,35.8c-4.9,2.7-10.2,4.1-15.6,4.1C39.9,405.2,33.8,403.3,28.4,399.8z M460.1,463.9l-5.3,4.1
	H293.1l-0.4-2.3c-0.8-4.6-2.9-11.2-8.2-17.1l-3.9-4.4l20.8-1.1c1.2-0.1,2.4-0.6,3.2-1.5c0.8-0.9,1.3-2.1,1.2-3.4
	c-0.1-2.6-2.3-4.5-4.9-4.4l-41,2.3l-0.3-0.1c-1.7-0.3-3.5-0.6-5.2-0.7l-115.7-12.1c-1.2-0.1-2.5,0.2-3.4,1c-1,0.8-1.6,1.9-1.7,3.1
	c-0.3,2.6,1.6,4.9,4.2,5.1l115.7,12.1c1.8,0.2,3.5,0.4,5.2,0.8l0.1,0c16.2,3.2,22.1,12.1,24.2,19.1l1.1,3.7H71.7
	c-12.1,0-21.5-6.4-25.8-17.6c-4.7-12.3-1.6-26.8,7.8-36l0.5-0.5l0.7-0.2l131.5-39.6h139.3l0.4,0.1l124.5,38
	c10.7,3.3,18.4,11.8,20.4,22.9C473,446.3,468.9,457,460.1,463.9z"/>
<path class="st0" d="M395.3,433.2c-0.1-1.2-0.6-2.4-1.5-3.2c-0.9-0.8-2-1.2-3.1-1.2c-0.1,0-0.2,0-0.3,0l-50.6,2.8
	c-1.2,0.1-2.4,0.6-3.2,1.5c-0.8,0.9-1.3,2.1-1.2,3.4c0.1,2.5,2.2,4.4,4.7,4.4c0.1,0,0.2,0,0.3,0l50.6-2.8
	C393.4,438,395.4,435.8,395.3,433.2z"/>
</svg>
