<?xml version="1.0" encoding="UTF-8"?><svg id="Warstwa_1" xmlns="http://www.w3.org/2000/svg" viewBox="0 0 43.04 10.38"><defs><style>.cls-1{fill:#fff;}</style></defs><path class="cls-1" d="M0,0H1.12L7.75,8V0h1.32V10.2h-1.14L1.32,2.21v8H0V0Z"/><path class="cls-1" d="M11.15,6.45c0-2.42,1.88-3.93,4.38-3.93s4.38,1.54,4.38,3.93-1.82,3.93-4.38,3.93-4.38-1.51-4.38-3.93Zm1.26,0c0,1.79,1.4,2.87,3.12,2.87s3.12-1.08,3.12-2.87-1.41-2.87-3.12-2.87-3.12,1.16-3.12,2.87Z"/><path class="cls-1" d="M27.19,4.28c-.46-.44-1.08-.57-1.75-.57-1.71,0-2.61,1.41-2.61,3.29v3.21h-1.23V2.7h1.23v2.19c.4-1.54,1.38-2.37,2.88-2.37,.52,0,1.05,.09,1.48,.29v1.47Z"/><path class="cls-1" d="M34.53,4.28c-.46-.44-1.08-.57-1.75-.57-1.71,0-2.61,1.41-2.61,3.29v3.21h-1.23V2.7h1.23v2.19c.4-1.54,1.38-2.37,2.88-2.37,.52,0,1.05,.09,1.48,.29v1.47Z"/><path class="cls-1" d="M42.72,8.66c0,.61,.15,1.18,.32,1.54h-1.43c-.1-.29-.15-.9-.15-1.33v-.3c-.34,1.14-1.49,1.81-2.88,1.81-1.79,0-3.06-.72-3.06-2.4,0-1.98,1.5-2.57,3.58-2.57,.78,0,1.37-.03,1.74-.1,.38-.06,.55-.23,.55-.48,0-.72-.79-1.27-2.29-1.27-1.27,0-2.58,.64-3.21,1.59v-1.49c.6-.74,2.07-1.14,3.21-1.14,2.52,0,3.62,.84,3.62,3v3.13Zm-1.29-3.04c-.34,.64-1.11,.72-2.33,.72-1.44,0-2.32,.34-2.32,1.65,0,.99,1,1.42,2.02,1.42,1.61,0,2.62-.77,2.62-2.21v-1.59Z"/></svg>