<?xml version="1.0" encoding="utf-8"?>
<!-- Generator: Adobe Illustrator 27.0.0, SVG Export Plug-In . SVG Version: 6.00 Build 0)  -->
<svg version="1.1" id="Warstwa_1" xmlns="http://www.w3.org/2000/svg" xmlns:xlink="http://www.w3.org/1999/xlink" x="0px" y="0px"
	 viewBox="0 0 512 512" style="enable-background:new 0 0 512 512;" xml:space="preserve">
<style type="text/css">
	.st0{fill:#FFFFFF;}
</style>
<g>
	<path class="st0" d="M493.2,50.5L343,3.1c0,0,0,0-0.1,0c-0.2,0-0.3-0.1-0.5-0.1l-0.3-0.1c-0.7-0.1-1.5-0.1-2.2,0.1l-0.4,0.1h-0.2
		L170.7,53.8L32.4,10.1c-2.2-0.7-4.5-1-6.8-1c-4.8,0-9.6,1.5-13.5,4.4c-5.8,4.3-9.3,11.1-9.3,18.3v407.9c0,10,6.4,18.8,15.9,21.8
		L169,508.9c1.1,0.3,2.2,0.3,3.3,0l169-50.7l138.2,43.7c2.2,0.7,4.6,1.1,6.9,1.1c12.5-0.1,22.7-10.3,22.7-22.8l0-408
		C509.2,62.2,502.8,53.5,493.2,50.5z M165,403.8l-2.9-0.1c-3-0.1-5.7,2.4-5.7,5.5c-0.1,3.1,2.3,5.7,5.4,5.8h3.3v80.7L22.2,450.6
		c-4.8-1.5-8-5.9-8-10.8h2.8l-2.8,0V31.8c0-6.3,5.1-11.4,11.4-11.4c1.2,0,2.3,0.2,3.4,0.5L165,63.9V403.8z M335.7,448l-159.3,47.8
		v-80.7l2.6-0.2c3.3-0.2,6.6-0.7,9.8-1.2c2-0.4,3.6-1.8,4.3-3.7c0.7-1.9,0.3-4.1-1-5.6c-1.3-1.5-3.4-2.3-5.4-1.9
		c-2.1,0.4-4.5,0.7-7.3,0.9l-3,0.2V64l159.3-47.8v89.2l-2.7,0.1c-9.3,0.4-18.5,2-27.5,4.7l-0.2,0c-2.1,0.5-3.7,2.1-4.2,4.2
		c-0.5,2.1,0.2,4.2,1.8,5.6c1.6,1.4,3.9,1.8,5.8,1l0.2-0.1c7.7-2.3,15.7-3.7,23.7-4.1l3-0.1V448z M497.8,480.2c0,3.6-1.7,7-4.6,9.2
		c-2,1.5-4.3,2.2-6.7,2.2c-1.2,0-2.3-0.2-3.5-0.5L347,448.1V116.8l3.1,0.3c7.9,0.7,15.7,2.7,23,6c1.4,0.6,3,0.7,4.4,0.2
		c1.4-0.5,2.6-1.6,3.2-3c1.3-2.9,0-6.2-2.8-7.5c-8.9-4-18.4-6.3-28.2-7l-2.6-0.2V16.3l142.8,45.1c4.8,1.5,8,5.9,8,10.8V480.2z"/>
	<path class="st0" d="M464.8,311.7L464.8,311.7c-2.2-2.2-5.8-2.2-8.1,0l-30.1,30.1l-30.1-30.1c-1.1-1-2.5-1.6-3.9-1.6
		c-1.5,0-2.9,0.6-4,1.7c-2.2,2.2-2.2,5.8-0.1,8l30.1,30.1L388.5,380c-1.5,1.5-2.1,3.6-1.6,5.6c0.5,2,2.1,3.5,4.1,4.1
		c2,0.5,4.1-0.1,5.5-1.6l30.1-30.1l30.1,30.1c2.2,2.1,5.8,2.1,8-0.1c2.2-2.2,2.2-5.8,0.1-8l-30.1-30.1l30.1-30.1
		C467,317.5,467,313.9,464.8,311.7z"/>
	<path class="st0" d="M85.2,270.2L85.2,270.2c3.2,0,5.7-2.5,5.7-5.7v-2.4c0.1-4.9,0.1-9.9,0.1-14.7c0-3.1-2.6-5.7-5.7-5.7
		c-3.1,0-5.7,2.6-5.7,5.7c0,4.8,0,9.7-0.1,14.6v2.4c0,1.6,0.6,3,1.6,4.1C82.3,269.6,83.7,270.2,85.2,270.2z"/>
	<path class="st0" d="M86.4,321.4c1.5-0.1,2.8-0.8,3.8-1.9c1-1.1,1.5-2.6,1.4-4.1c-0.3-5.2-0.6-10.7-0.7-16.8c0-1.5-0.7-2.9-1.8-4
		c-1.1-1-2.5-1.6-3.9-1.6c0,0-0.1,0-0.1,0c-1.5,0-2.9,0.7-4,1.8c-1.1,1.1-1.6,2.5-1.6,4.1c0.2,6.6,0.4,12.2,0.7,17.3
		c0.2,3,2.6,5.3,5.6,5.3C86.1,321.4,86.2,321.4,86.4,321.4z"/>
	<path class="st0" d="M101.5,364.7c-2.2-5.2-3.9-10.6-5.2-16.1l0-0.1c-0.4-2-1.9-3.7-3.9-4.3c-0.6-0.2-1.1-0.3-1.7-0.3
		c-1.5,0-2.9,0.6-4,1.6c-1.5,1.5-2.1,3.6-1.5,5.6l0,0.1c1.4,6.1,3.4,12.2,5.8,18c0.8,2,2.5,3.4,4.6,3.6c2.1,0.3,4.1-0.6,5.3-2.3
		c1.2-1.7,1.4-3.9,0.6-5.8L101.5,364.7z"/>
	<path class="st0" d="M130.4,396.1l-0.7-0.4c-0.5-0.3-1-0.5-1.6-0.8l-3.6-1.9l0.2-0.1c-2.3-1.4-4.5-3-6.5-4.8
		c-1.1-0.9-2.4-1.4-3.7-1.4c-0.2,0-0.3,0-0.5,0c-1.5,0.1-2.9,0.8-3.9,2c-1,1.2-1.5,2.6-1.3,4.2c0.1,1.5,0.8,2.9,2,3.9
		c4.5,3.8,9.4,7,14.7,9.5c2.8,1.2,6,0.1,7.4-2.7C134.2,400.8,133.1,397.5,130.4,396.1z"/>
	<path class="st0" d="M231.1,376.4c-1.8-0.2-3.7,0.5-4.9,1.8l-0.3,0.4c-2.6,3.5-5.6,6.7-8.9,9.6l-0.1,0.1c-1.6,1.3-2.4,3.4-2,5.5
		c0.4,2.1,1.9,3.7,3.9,4.4c2,0.6,4.2,0.1,5.7-1.3l0.1-0.1c3.8-3.4,7.4-7.2,10.4-11.3c1.2-1.6,1.5-3.8,0.7-5.7
		C234.8,378,233.1,376.6,231.1,376.4z"/>
	<path class="st0" d="M251.5,327.2c-0.4-0.1-0.8-0.1-1.1-0.1c-1.1,0-2.2,0.3-3.1,1c-1.3,0.8-2.1,2.1-2.4,3.6
		c-1.1,5.5-2.5,11.1-4.1,16.5c-0.6,1.9-0.1,4.1,1.3,5.6c1.4,1.5,3.5,2.1,5.4,1.7c2-0.5,3.6-1.9,4.2-3.9c1.8-5.8,3.3-11.7,4.4-17.6
		C256.6,330.8,254.6,327.8,251.5,327.2z"/>
	<path class="st0" d="M256,275.9h-0.3c0,0,0,0,0,0c-3.1,0-5.6,2.4-5.7,5.5c-0.2,6.2-0.5,11.7-0.9,16.9c-0.1,1.5,0.4,3,1.4,4.2
		c1,1.1,2.3,1.8,3.8,2h0.5c0,0,0,0,0,0c3,0,5.5-2.3,5.7-5.3c0.4-5.5,0.7-11.1,0.9-17.3c0.1-1.5-0.5-3-1.5-4.1
		C259,276.6,257.5,276,256,275.9z"/>
	<path class="st0" d="M256,224.7C256,224.7,256,224.7,256,224.7c-1.5,0-3,0.6-4.1,1.7c-1.1,1.1-1.7,2.5-1.7,4.1l0.1,17.1
		c0,3.1,2.6,5.7,5.7,5.7c0,0,0,0,0,0h0.1c1.5,0,2.9-0.6,4-1.7s1.7-2.5,1.6-4l-0.1-17.1C261.7,227.2,259.2,224.7,256,224.7z"/>
	<path class="st0" d="M260.1,173.6c-1.5-0.3-3,0.1-4.3,1s-2.1,2.2-2.3,3.7c-0.9,5.5-1.7,11.4-2.2,17.6c-0.1,1.5,0.3,3,1.3,4.2
		c1,1.1,2.3,1.8,3.8,2h0.6c3,0,5.5-2.3,5.7-5.2c0.5-5.9,1.2-11.4,2.1-16.6C265.3,177.1,263.2,174.1,260.1,173.6z"/>
	<path class="st0" d="M283.2,125c-2-0.6-4.1,0-5.5,1.4c-4.8,4.7-8.9,10-12.2,15.8c-1.6,2.7-0.6,6.2,2.1,7.8l0,0
		c0.8,0.5,1.8,0.7,2.8,0.7c0,0,0,0,0,0c0,0,0,0,0,0c2.1,0,4-1.1,5-2.9c2.7-4.9,6.2-9.3,10.2-13.3c1.5-1.4,2.1-3.5,1.6-5.5
		S285.2,125.6,283.2,125z"/>
	<path class="st0" d="M407,156.3c0.7,1.3,1.9,2.3,3.4,2.8c1.5,0.4,3,0.3,4.3-0.4c2.8-1.5,3.8-4.9,2.3-7.7
		c-3.4-6.5-7.6-12.6-12.4-18.1c-2.1-2.3-5.7-2.6-8-0.5c-2.4,2.1-2.6,5.7-0.6,8C400.3,145.2,403.9,150.6,407,156.3z"/>
	<path class="st0" d="M419.8,197c0.8,5.4,1.1,10.8,1.2,16.3c0,3.2,2.6,5.7,5.7,5.7s5.7-2.6,5.7-5.7c0-5.9-0.5-11.9-1.3-17.8
		c-0.3-2.1-1.6-3.8-3.5-4.6c-0.7-0.3-1.4-0.4-2.2-0.4c-1.3,0-2.5,0.4-3.5,1.2C420.3,192.9,419.5,195,419.8,197L419.8,197z"/>
	<path class="st0" d="M432.4,247.5c0-3.1-2.6-5.7-5.7-5.7s-5.7,2.6-5.7,5.7v17.1c0,3.1,2.6,5.7,5.7,5.7s5.7-2.6,5.7-5.7V247.5z"/>
	<path class="st0" d="M426.7,293c-3.1,0-5.7,2.6-5.7,5.7v8.5c0,3.1,2.6,5.7,5.7,5.7s5.7-2.6,5.7-5.7v-8.5
		C432.4,295.5,429.8,293,426.7,293z"/>
	<path class="st0" d="M81.8,217.8c2.1,1.7,5,1.7,7.1,0c1.8-1.5,44.8-36.5,44.8-81.3c0-26.7-21.7-48.4-48.4-48.4
		c-26.7,0-48.4,21.7-48.4,48.4C37,181.3,79.9,216.3,81.8,217.8z M48.4,136.5c0-20.4,16.6-37,37-37s37,16.6,37,37
		c0,13.3-4.5,27.2-13.5,41.3c-7.2,11.4-15.7,20.5-21.6,26.1l-2,1.9l-2-1.9c-5.9-5.6-14.3-14.6-21.6-26.1
		C52.9,163.7,48.4,149.8,48.4,136.5z"/>
	<path class="st0" d="M85.3,142.2c3.1,0,5.7-2.6,5.7-5.7c0-3.1-2.6-5.7-5.7-5.7c-3.1,0-5.7,2.6-5.7,5.7
		C79.6,139.7,82.2,142.2,85.3,142.2z"/>
</g>
</svg>
