<?xml version="1.0" encoding="utf-8"?>
<!-- Generator: Adobe Illustrator 27.0.0, SVG Export Plug-In . SVG Version: 6.00 Build 0)  -->
<svg version="1.1" id="Capa_1" xmlns="http://www.w3.org/2000/svg" xmlns:xlink="http://www.w3.org/1999/xlink" x="0px" y="0px"
	 viewBox="0 0 512 512" style="enable-background:new 0 0 512 512;" xml:space="preserve">
<style type="text/css">
	.st0{fill:#FFFFFF;}
</style>
<path class="st0" d="M507.4,320.7c2.4-2.7,2.4-6.8,0-9.5c-1.1-1.3-27.6-31-71.8-61.2c-41-27.9-105.4-61.2-179.5-61.2
	c-74.1,0-138.6,33.3-179.5,61.2C32.2,280.2,5.7,310,4.6,311.3c-2.4,2.7-2.4,6.8,0,9.5c1.1,1.3,27.6,31,71.8,61.2
	c41,27.9,105.4,61.2,179.5,61.2c74.1,0,138.6-33.3,179.5-61.2C479.9,351.7,506.3,322,507.4,320.7z M164.3,411.7
	c-26.8-9.8-53.5-23.7-79.3-41.3c-30.5-20.8-52.7-41.7-63.2-52.4l-2-2l2-2c10.4-10.5,32.4-31.3,62.8-52.1
	c25.9-17.7,52.8-31.7,79.8-41.6l12.4-4.6l-9.5,9.3c-24.8,24.2-38.4,56.5-38.4,91s13.6,66.8,38.4,91l9.5,9.3L164.3,411.7z M143.2,316
	c0-62.2,50.6-112.8,112.8-112.8c62.2,0,112.8,50.6,112.8,112.8c0,62.2-50.6,112.8-112.8,112.8C193.8,428.8,143.2,378.2,143.2,316z
	 M490.2,318c-10.4,10.6-32.4,31.3-62.8,52.1c-25.9,17.7-52.8,31.7-79.8,41.6l-12.4,4.6l9.5-9.3c24.8-24.2,38.4-56.5,38.4-91
	c0-34.5-13.6-66.8-38.4-91l-9.5-9.3l12.4,4.6c26.8,9.9,53.5,23.7,79.3,41.3c30.6,20.8,52.7,41.7,63.2,52.4l2,2L490.2,318z"/>
<path class="st0" d="M172.9,162c0.5-1.8,0.2-3.8-0.7-5.4l-30-52c-1-1.7-2.5-2.8-4.4-3.3c-0.6-0.2-1.2-0.2-1.9-0.2
	c-1.2,0-2.5,0.3-3.6,1c-1.7,1-2.8,2.5-3.3,4.4s-0.2,3.8,0.7,5.4l30,52c1,1.7,2.5,2.8,4.4,3.3c1.8,0.5,3.8,0.2,5.4-0.7h0
	C171.2,165.4,172.4,163.8,172.9,162z"/>
<path class="st0" d="M379.6,101.9L379.6,101.9c-1.1-0.6-2.3-1-3.6-1c-0.6,0-1.2,0.1-1.9,0.2c-1.8,0.5-3.4,1.7-4.4,3.3l-30,52
	c-1,1.7-1.2,3.6-0.7,5.4c0.5,1.8,1.7,3.4,3.3,4.4c3.4,2,7.8,0.8,9.8-2.6l30-52c1-1.7,1.2-3.6,0.7-5.4
	C382.4,104.5,381.2,102.9,379.6,101.9z"/>
<path class="st0" d="M263.2,76c0-4-3.2-7.2-7.2-7.2s-7.2,3.2-7.2,7.2v60c0,4,3.2,7.2,7.2,7.2s7.2-3.2,7.2-7.2V76z"/>
</svg>
